<?xml version="1.0" encoding="utf-8"?>
<svg width="52" height="53" viewBox="0 0 52 53" fill="none" xmlns="http://www.w3.org/2000/svg" class="responsive-svg">
  <rect y="0.395996" width="52" height="52" rx="15" fill="#EBD96B" transform="matrix(0.9999999999999999, 0, 0, 0.9999999999999999, 0, -8.881784197001252e-16)"/>
  <path d="M 26.082 13.378 C 19.103 13.378 13.442 19.001 13.442 25.936 C 13.442 31.484 17.063 36.191 22.087 37.852 C 22.718 37.968 22.922 37.579 22.922 37.248 L 22.922 34.91 C 19.406 35.67 18.674 33.429 18.674 33.429 C 18.099 31.977 17.27 31.591 17.27 31.591 C 16.123 30.811 17.357 30.828 17.357 30.828 C 18.627 30.916 19.294 32.122 19.294 32.122 C 20.421 34.042 22.251 33.487 22.973 33.166 C 23.085 32.355 23.413 31.8 23.775 31.487 C 20.968 31.168 18.017 30.091 18.017 25.281 C 18.017 23.909 18.511 22.789 19.319 21.91 C 19.188 21.593 18.755 20.315 19.442 18.586 C 19.442 18.586 20.504 18.249 22.919 19.873 C 23.927 19.595 25.008 19.456 26.082 19.451 C 27.157 19.456 28.238 19.595 29.248 19.873 C 31.662 18.249 32.721 18.586 32.721 18.586 C 33.409 20.316 32.976 21.594 32.846 21.91 C 33.657 22.789 34.146 23.91 34.146 25.281 C 34.146 30.104 31.19 31.166 28.375 31.477 C 28.828 31.866 29.242 32.63 29.242 33.802 L 29.242 37.248 C 29.242 37.582 29.444 37.974 30.086 37.851 C 35.105 36.188 38.722 31.482 38.722 25.936 C 38.722 19.001 33.063 13.378 26.082 13.378 Z" fill="#000" style="" transform="matrix(0.9999999999999999, 0, 0, 0.9999999999999999, 0, -8.881784197001252e-16)"/>
</svg>