
<?xml version="1.0" encoding="utf-8"?>
<svg width="188.4px" height="39px" viewBox="0 0 2000 333" xmlns="http://www.w3.org/2000/svg">
  <g transform="matrix(1, 0, 0, 1, -1.2121212663072498, 0.7616584414490859)">
    <svg viewBox="0 0 396 66" data-background-color="#ffffff" preserveAspectRatio="xMidYMid meet" height="333" width="2000" xmlns="http://www.w3.org/2000/svg">
      <g id="tight-bounds" transform="matrix(1,0,0,1,0.2400000000000091,-0.15095932978471183)">
        <svg viewBox="0 0 395.52 66.30191865956944" height="66.30191865956944" width="395.52">
          <g>
            <svg viewBox="0 0 485.21643373810184 81.33793619030641" height="66.30191865956944" width="395.52">
              <g transform="matrix(1,0,0,1,0,22.96598780957682)">
                <svg viewBox="0 0 395.52 35.40596057115277" height="35.40596057115277" width="395.52">
                  <g id="textblocktransform">
                    <svg viewBox="0 0 395.52 35.40596057115277" height="35.40596057115277" width="395.52" id="textblock">
                      <g>
                        <svg viewBox="0 0 395.52 35.40596057115277" height="35.40596057115277" width="395.52">
                          <g transform="matrix(1,0,0,1,0,0)">
                            <svg width="395.52" viewBox="2.98 -35.49890909090909 403.55815539979704 35.98890909090909" height="35.40596057115277" data-palette-color="#000000">
                              <g transform="matrix(1,0,0,1,0,0)">
                                <g>
                                  <svg width="4.606240874873192" viewBox="3.16 -36.36 28.68 36.36" height="5.841226818415045" data-palette-color="#000000" id="scriptelement" x="398.5268649623605" y="-32.71135250011661">
                                    <path d="M10.85 0L3.16 0 3.16-36.36 17.51-36.36Q21.63-36.36 24.55-34.9 27.47-33.43 29-30.76 30.54-28.09 30.54-24.49L30.54-24.49Q30.54-20.86 28.98-18.26 27.41-15.66 24.46-14.28 21.5-12.89 17.31-12.89L17.31-12.89 7.71-12.89 7.71-19.07 16.07-19.07Q18.27-19.07 19.73-19.67 21.18-20.28 21.9-21.48 22.62-22.69 22.62-24.49L22.62-24.49Q22.62-26.3 21.9-27.54 21.18-28.78 19.72-29.43 18.25-30.08 16.03-30.08L16.03-30.08 10.85-30.08 10.85 0ZM14.51-16.55L22.8-16.55 31.84 0 23.35 0 14.51-16.55Z" opacity="1" transform="matrix(1,0,0,1,0,0)" fill="#000000" class="undefined-123" data-fill-palette-color="primary" id="lv-123"/>
                                  </svg>
                                </g>
                              </g>
                              <path d="M395.122-29.791C395.122-32.943 397.677-35.499 400.83-35.499 403.983-35.499 406.538-32.943 406.538-29.791 406.538-26.638 403.983-24.083 400.83-24.083 397.677-24.083 395.122-26.638 395.122-29.791ZM400.83-24.635C403.677-24.635 405.985-26.943 405.985-29.791 405.985-32.638 403.677-34.946 400.83-34.946 397.983-34.946 395.675-32.638 395.675-29.791 395.675-26.943 397.983-24.635 400.83-24.635Z" fill="#000000" id="scriptcircle" data-fill-palette-color="primary"/>
                              <path d="M37.99-35.01L37.99-3.2Q37.99-2.51 37.74-1.93 37.5-1.34 37.06-0.92 36.62-0.49 36.04-0.24 35.45 0 34.79 0L34.79 0 20.48 0Q18.46 0 16.38-0.44 14.31-0.88 12.37-1.79 10.42-2.71 8.72-4.13 7.01-5.54 5.73-7.48 4.44-9.42 3.71-11.93 2.98-14.43 2.98-17.5L2.98-17.5 2.98-35.01 9.33-35.01 9.33-17.5Q9.33-14.82 10.07-12.96 10.82-11.11 11.96-9.86 13.11-8.62 14.48-7.91 15.84-7.2 17.08-6.86 18.31-6.52 19.25-6.43 20.19-6.35 20.48-6.35L20.48-6.35 31.64-6.35 31.64-35.01 37.99-35.01ZM80.34-27.29L80.34-23.24Q80.34-21.07 79.81-19.36 79.27-17.65 78.35-16.35 77.44-15.04 76.24-14.11 75.05-13.18 73.74-12.59 72.43-11.99 71.1-11.72 69.77-11.45 68.6-11.45L68.6-11.45 81.86 0 72.04 0 58.81-11.45 54.25-11.45 54.25-17.8 68.6-17.8Q69.8-17.9 70.79-18.3 71.77-18.7 72.5-19.38 73.22-20.07 73.61-21.03 74-22 74-23.24L74-23.24 74-27.25Q74-27.78 73.86-28.06 73.73-28.34 73.52-28.48 73.31-28.61 73.08-28.64 72.85-28.66 72.65-28.66L72.65-28.66 51.71-28.66 51.71 0 45.36 0 45.36-31.81Q45.36-32.47 45.6-33.06 45.85-33.64 46.27-34.08 46.7-34.52 47.29-34.77 47.87-35.01 48.56-35.01L48.56-35.01 72.65-35.01Q74.78-35.01 76.24-34.24 77.71-33.47 78.62-32.31 79.54-31.15 79.94-29.81 80.34-28.47 80.34-27.29L80.34-27.29ZM121.65-8.91L121.65-7.69Q121.65-6.52 121.25-5.18 120.84-3.83 119.93-2.69 119.01-1.54 117.55-0.77 116.08 0 113.96 0L113.96 0 89.86 0Q89.18 0 88.59-0.24 88.01-0.49 87.58-0.92 87.15-1.34 86.91-1.93 86.66-2.51 86.66-3.2L86.66-3.2 86.66-31.81Q86.66-32.47 86.91-33.06 87.15-33.64 87.58-34.08 88.01-34.52 88.59-34.77 89.18-35.01 89.86-35.01L89.86-35.01 111.1-35.01Q112.28-35.01 113.62-34.59 114.96-34.18 116.12-33.26 117.28-32.35 118.05-30.88 118.82-29.42 118.82-27.29L118.82-27.29 118.82-26.1Q118.82-24.41 118.26-22.47 117.7-20.53 116.45-18.8L116.45-18.8Q117.52-18.14 118.46-17.21 119.4-16.28 120.11-15.06 120.82-13.84 121.24-12.3 121.65-10.77 121.65-8.91L121.65-8.91ZM115.3-7.74L115.3-8.91Q115.3-10.16 114.91-11.15 114.52-12.13 113.81-12.84 113.11-13.55 112.1-13.93 111.1-14.31 109.86-14.31L109.86-14.31 95.55-14.31 95.55-20.7 107-20.7Q108.25-20.7 109.25-21.08 110.25-21.46 110.96-22.17 111.66-22.88 112.04-23.86 112.42-24.85 112.42-26.1L112.42-26.1 112.42-27.29Q112.42-28.66 111.1-28.66L111.1-28.66 93.01-28.66 93.01-6.35 113.96-6.35Q114.13-6.35 114.37-6.37 114.62-6.4 114.81-6.52 115.01-6.64 115.16-6.93 115.3-7.23 115.3-7.74L115.3-7.74ZM161.52-31.81L161.52 0 155.17 0 155.17-8.59 132.85-8.59 132.85 0 126.51 0 126.51-17.5Q126.51-21.34 127.82-24.56 129.14-27.78 131.49-30.1 133.83-32.42 137.03-33.72 140.23-35.01 144.01-35.01L144.01-35.01 158.32-35.01Q158.98-35.01 159.56-34.77 160.15-34.52 160.59-34.08 161.03-33.64 161.27-33.06 161.52-32.47 161.52-31.81L161.52-31.81ZM132.85-17.5L132.85-14.94 155.17-14.94 155.17-28.66 144.01-28.66Q143.72-28.66 142.78-28.58 141.84-28.49 140.61-28.15 139.37-27.81 138.01-27.1 136.64-26.39 135.49-25.15 134.34-23.9 133.6-22.03 132.85-20.17 132.85-17.5L132.85-17.5ZM203.87-35.01L203.87-2.71Q203.87-2.03 203.62-1.44 203.36-0.85 202.93-0.43 202.5 0 201.92 0.24 201.33 0.49 200.67 0.49L200.67 0.49Q200.09 0.49 199.49 0.27 198.89 0.05 198.43-0.44L198.43-0.44 175.23-24.66 175.23 0 168.89 0 168.89-32.3Q168.89-33.28 169.44-34.07 169.99-34.86 170.84-35.25L170.84-35.25Q171.74-35.62 172.7-35.44 173.65-35.25 174.33-34.55L174.33-34.55 197.52-10.35 197.52-35.01 203.87-35.01ZM244.88-10.3L244.88-10.3Q244.88-8.42 244.41-6.92 243.93-5.42 243.15-4.27 242.37-3.13 241.32-2.32 240.27-1.51 239.15-1 238.02-0.49 236.86-0.24 235.71 0 234.68 0L234.68 0 210.19 0 210.19-6.35 234.68-6.35Q236.51-6.35 237.52-7.42 238.54-8.5 238.54-10.3L238.54-10.3Q238.54-11.18 238.27-11.91 238-12.65 237.5-13.18 237-13.72 236.28-14.01 235.56-14.31 234.68-14.31L234.68-14.31 220.08-14.31Q218.54-14.31 216.76-14.86 214.98-15.41 213.45-16.63 211.93-17.85 210.91-19.82 209.9-21.8 209.9-24.66L209.9-24.66Q209.9-27.51 210.91-29.48 211.93-31.45 213.45-32.68 214.98-33.91 216.76-34.46 218.54-35.01 220.08-35.01L220.08-35.01 241.69-35.01 241.69-28.66 220.08-28.66Q218.27-28.66 217.26-27.56 216.25-26.46 216.25-24.66L216.25-24.66Q216.25-22.83 217.26-21.77 218.27-20.7 220.08-20.7L220.08-20.7 234.68-20.7 234.73-20.7Q235.75-20.68 236.9-20.42 238.05-20.17 239.18-19.63 240.32-19.09 241.34-18.27 242.37-17.46 243.16-16.31 243.96-15.16 244.42-13.67 244.88-12.18 244.88-10.3ZM281.43-35.01L281.43-28.66 267.44-28.66 267.44 0 261.09 0 261.09-28.66 247.08-28.66 247.08-35.01 281.43-35.01ZM319.44-35.01L319.44-23.29Q319.44-21.12 318.89-19.41 318.34-17.7 317.44-16.39 316.54-15.09 315.33-14.16 314.12-13.23 312.82-12.63 311.53-12.04 310.2-11.77 308.87-11.5 307.7-11.5L307.7-11.5 305.13-11.5 305.13 0 298.74 0 298.74-11.5 296.2-11.5Q295.03-11.5 293.7-11.77 292.37-12.04 291.06-12.63 289.75-13.23 288.56-14.16 287.36-15.09 286.44-16.39 285.53-17.7 284.98-19.42 284.43-21.14 284.43-23.29L284.43-23.29 284.43-35.01 290.78-35.01 290.78-23.29Q290.78-22.05 291.17-21.06 291.56-20.07 292.27-19.36 292.98-18.65 293.99-18.27 295-17.9 296.25-17.9L296.25-17.9 307.7-17.9Q308.6-18.04 309.55-18.27 310.5-18.51 311.29-19.07 312.07-19.63 312.58-20.63 313.09-21.63 313.09-23.29L313.09-23.29 313.09-35.01 319.44-35.01ZM357.3-6.35L357.3 0 328.35 0Q327.67 0 327.08-0.24 326.49-0.49 326.07-0.92 325.64-1.34 325.4-1.93 325.15-2.51 325.15-3.2L325.15-3.2 325.15-35.01 331.5-35.01 331.5-6.35 357.3-6.35ZM390.6-20.7L390.6-14.31 370.56-14.31 370.56-20.7 390.6-20.7ZM393.46-6.35L393.46 0 370.56 0Q369.24 0 367.68-0.46 366.12-0.93 364.78-1.99 363.45-3.05 362.56-4.75 361.67-6.45 361.67-8.91L361.67-8.91 361.67-31.81Q361.67-32.47 361.92-33.06 362.16-33.64 362.59-34.08 363.01-34.52 363.6-34.77 364.19-35.01 364.87-35.01L364.87-35.01 393.46-35.01 393.46-28.66 368.02-28.66 368.02-8.91Q368.02-7.67 368.68-7.01 369.34-6.35 370.61-6.35L370.61-6.35 393.46-6.35Z" opacity="1" transform="matrix(1,0,0,1,0,0)" fill="#000000" class="wordmark-text-0" data-fill-palette-color="primary" id="text-0"/>
                            </svg>
                          </g>
                        </svg>
                      </g>
                    </svg>
                  </g>
                </svg>
              </g>
              <g transform="matrix(1,0,0,1,403.87849754779546,0)">
                <svg viewBox="0 0 81.33793619030641 81.33793619030641" height="81.33793619030641" width="81.33793619030641">
                  <g>
                    <svg/>
                  </g>
                  <g id="icon-0">
                    <svg viewBox="0 0 81.33793619030641 81.33793619030641" height="81.33793619030641" width="81.33793619030641">
                      <g>
                        <rect width="73.9572716100749" height="73.9572716100749" x="3.690332290115755" y="3.690332290115755" fill="#000000" data-fill-palette-color="accent"/>
                        <rect width="73.9572716100749" height="73.9572716100749" x="2.220446049250313e-15" y="2.220446049250313e-15" fill="#000000" opacity="0.5" data-fill-palette-color="accent"/>
                      </g>
                      <g transform="matrix(1,0,0,1,10.54380654318787,14.921047596890876)">
                        <svg viewBox="0 0 60.25032310393067 51.495840996524656" height="51.495840996524656" width="60.25032310393067">
                          <g>
                            <svg xmlns="http://www.w3.org/2000/svg" version="1.1" x="0" y="0" viewBox="7.853 15.093 72.50395760464336 61.968999999999994" enable-background="new 0 0 90 90" height="51.495840996524656" width="60.25032310393067" class="icon-z$-0" data-fill-palette-color="background" id="z$-0">
                              <g fill="#ffffff" data-fill-palette-color="background">
                                <path d="M34.458 24.924c-2.88-1.648-5.694-2.871-6.841-3.495 0.137-0.478 0.404-0.789 0.725-1.162 0.466-0.54 1.048-1.212 1.048-2.375 0-1.544-1.257-2.799-2.801-2.799-1.543 0-2.798 1.255-2.798 2.799 0 0.511 0.416 0.926 0.926 0.926s0.926-0.416 0.926-0.926c0-0.522 0.424-0.947 0.946-0.947 0.522 0 0.947 0.425 0.947 0.947 0 0.453-0.184 0.685-0.597 1.165-0.434 0.503-1.014 1.178-1.209 2.332-0.49 0.315-1.266 0.937-2.516 1.945-0.618 0.497-1.43 0.964-2.256 1.467h-0.042l0.012 0.018c-0.03 0.019-0.06 0.037-0.089 0.055-2.094 0.172-3.999 1.299-5.083 3.128L7.853 41.326l6.532 3.073 4.848-10.116c0 0 1.839 10.014 1.683 13.383-0.328 7.012-6.088 27.412-6.088 27.412-0.106 0.485 0.009 0.988 0.321 1.374 0.306 0.388 0.78 0.61 1.275 0.61h22.057c0.495 0 0.959-0.223 1.274-0.61 0.309-0.386 0.425-0.889 0.318-1.374 0 0-5.764-20.4-6.091-27.412-0.158-3.369 1.688-13.383 1.688-13.383l4.842 10.116 6.53-3.073-7.895-13.322C38.132 26.291 36.394 25.198 34.458 24.924zM27.45 34.601l-5.657-8.483c2.059-1.438 4.008-2.754 4.835-3.223 1.033 0.533 3.642 1.973 6.312 3.475L27.45 34.601z" fill="#ffffff" data-fill-palette-color="background"/>
                                <path d="M73.943 31.843h0.236c4.507 0 5.444 0 5.937-0.51 0.167-0.173 0.251-0.395 0.24-0.642-0.018-0.448-0.358-0.895-2.104-1.967-3.782-2.33-10.174-6.1-12.061-7.125 0.136-0.477 0.404-0.788 0.724-1.162 0.469-0.54 1.049-1.211 1.049-2.375 0-1.544-1.256-2.8-2.8-2.8-1.543 0-2.799 1.256-2.799 2.8 0 0.511 0.415 0.926 0.926 0.926s0.927-0.416 0.927-0.926c0-0.522 0.425-0.947 0.946-0.947 0.522 0 0.947 0.425 0.947 0.947 0 0.453-0.184 0.685-0.597 1.165-0.432 0.501-1.01 1.172-1.207 2.314-1.743 0.935-8.314 4.811-12.166 7.183-1.746 1.075-2.087 1.523-2.103 1.966-0.011 0.246 0.071 0.469 0.239 0.643 0.489 0.51 1.427 0.51 6.054 0.51l1.984 0.024v2.383h-2.628l0.753 42.675h4.879l3.877-33.789 3.876 33.789h4.882l0.75-42.675h-1.632v-2.396L73.943 31.843zM72.084 34.25h-6.887-5.89v-2.37l3.803 0.1 8.974-0.114V34.25zM53.708 30.395c-0.306 0.015-0.915 0-1.452-0.025 2.63-1.621 10.899-6.258 12.941-7.308 2.047 1.053 10.362 5.715 12.953 7.307-0.541 0.027-1.173 0.027-1.463 0.027l-2.721-0.012L53.708 30.395z" fill="#ffffff" data-fill-palette-color="background"/>
                              </g>
                            </svg>
                          </g>
                        </svg>
                      </g>
                    </svg>
                  </g>
                </svg>
              </g>
            </svg>
          </g>
        </svg>
        <rect width="395.52" height="66.30191865956944" fill="none" stroke="none" visibility="hidden"/>
      </g>
    </svg>
  </g>
</svg>