<?xml version="1.0" encoding="utf-8"?>
<svg width="188.4px" height="39px" viewBox="0 0 2000 414" xmlns="http://www.w3.org/2000/svg">
  <g transform="matrix(1, 0, 0, 1, -1.212121, -0.389557)">
    <svg viewBox="0 0 396 82" data-background-color="#ffffff" preserveAspectRatio="xMidYMid meet" height="414" width="2000" xmlns="http://www.w3.org/2000/svg">
      <g id="tight-bounds" transform="matrix(1,0,0,1,0.2400000000000091,0.07715855839347796)">
        <svg viewBox="0 0 395.52 81.84568288321307" height="81.84568288321307" width="395.52">
          <g>
            <svg viewBox="0 0 512.4621762108462 106.04474303143755" height="81.84568288321307" width="395.52">
              <g transform="matrix(1,0,0,1,0,29.94202201087992)">
                <svg viewBox="0 0 395.52 46.16069900967771" height="46.16069900967771" width="395.52">
                  <g id="textblocktransform">
                    <svg viewBox="0 0 395.52 46.16069900967771" height="46.16069900967771" width="395.52" id="textblock">
                      <g>
                        <svg viewBox="0 0 395.52 46.16069900967771" height="46.16069900967771" width="395.52">
                          <g transform="matrix(1,0,0,1,0,0)">
                            <svg width="395.52" viewBox="2.5 -35.1 304.0282308872446 35.300000000000004" height="46.16069900967771" data-palette-color="#000000">
                              <g transform="matrix(1,0,0,1,0,0)">
                                <g>
                                  <svg width="4.630919304527909" viewBox="3.16 -36.36 28.68 36.36" height="5.8725218177542775" data-palette-color="#000000" id="scriptelement" x="298.4740112349807" y="-32.29750090887714">
                                    <path d="M10.85 0L3.16 0 3.16-36.36 17.51-36.36Q21.63-36.36 24.55-34.9 27.47-33.43 29-30.76 30.54-28.09 30.54-24.49L30.54-24.49Q30.54-20.86 28.98-18.26 27.41-15.66 24.46-14.28 21.5-12.89 17.31-12.89L17.31-12.89 7.71-12.89 7.71-19.07 16.07-19.07Q18.27-19.07 19.73-19.67 21.18-20.28 21.9-21.48 22.62-22.69 22.62-24.49L22.62-24.49Q22.62-26.3 21.9-27.54 21.18-28.78 19.72-29.43 18.25-30.08 16.03-30.08L16.03-30.08 10.85-30.08 10.85 0ZM14.51-16.55L22.8-16.55 31.84 0 23.35 0 14.51-16.55Z" opacity="1" transform="matrix(1,0,0,1,0,0)" fill="#000000" class="undefined-123" data-fill-palette-color="primary" id="lv-123"/>
                                  </svg>
                                </g>
                              </g>
                              <path d="M295.051-29.361C295.051-32.531 297.62-35.1 300.789-35.1 303.959-35.1 306.528-32.531 306.528-29.361 306.528-26.192 303.959-23.622 300.789-23.622 297.62-23.622 295.051-26.192 295.051-29.361ZM300.789-24.175C303.654-24.175 305.975-26.497 305.975-29.361 305.975-32.225 303.654-34.547 300.789-34.547 297.925-34.547 295.604-32.225 295.604-29.361 295.604-26.497 297.925-24.175 300.789-24.175Z" fill="#000000" id="scriptcircle" data-fill-palette-color="primary"/>
                              <path d="M2.5-34.95L12.5-35Q12.5-34.95 12.55-34.25L12.55-34.25 9.15-33.95 9.15-15.05Q9.15-6.35 12.2-3.5L12.2-3.5Q13.65-2.1 15.15-1.58 16.65-1.05 18.68-1.05 20.7-1.05 22.35-1.6 24-2.15 25.55-3.6L25.55-3.6Q28.85-6.6 28.85-15.05L28.85-15.05 28.85-33.15Q28.75-33.8 28.25-33.85L28.25-33.85 24.65-34.2Q24.6-34.5 24.6-34.95L24.6-34.95 34.1-35Q34.1-34.95 34.15-34.25L34.15-34.25 30-33.8 30-15Q30 0.2 18.65 0.2L18.65 0.2Q15.9 0.2 13.83-0.38 11.75-0.95 9.8-2.5L9.8-2.5Q5.75-5.65 5.75-15L5.75-15 5.75-33.3Q5.55-33.9 5.15-33.95L5.15-33.95 2.55-34.2Q2.5-34.5 2.5-34.95L2.5-34.95ZM39.4-33.95L36.75-34.25 36.8-35 48.95-35Q54.1-35 56.9-32.75 59.7-30.5 59.7-26.05L59.7-26.05Q59.7-23.15 57.47-20 55.25-16.85 53.3-15.95L53.3-15.95 62.55-0.9 65-0.75Q65-0.7 64.95 0L64.95 0 59.5 0.05 50-15.35 43.35-15.35 43.35-0.95 46.85-0.75Q46.85-0.7 46.8 0L46.8 0 36.75 0.05 36.8-0.65 39.4-1Q39.75-1.05 39.95-1.45L39.95-1.45 39.95-33.45Q39.8-33.9 39.4-33.95L39.4-33.95ZM48.7-34.25L48.7-34.25 43.35-34.25 43.35-16.1 51.9-16.1Q54.5-19.05 55.4-21.33 56.3-23.6 56.3-25.75L56.3-25.75Q56.3-29.95 54.35-32.1 52.4-34.25 48.7-34.25ZM70.65-33.95L68-34.25 68.05-35 78.75-35Q89.55-35 89.55-26.55L89.55-26.55Q89.55-23.3 85.25-19.45L85.25-19.45Q91.59-17.9 91.59-10.35L91.59-10.35Q91.59-4.45 88.62-2.23 85.65 0 79.5 0L79.5 0 78.05 0 68 0.05 68.05-0.65 70.65-1Q71.15-1.05 71.25-1.65L71.25-1.65 71.25-33.25Q71.15-33.9 70.65-33.95L70.65-33.95ZM80.5-19.15L80.5-19.15 74.65-19.15 74.65-0.75 79.25-0.75Q88.2-0.75 88.2-10.15L88.2-10.15Q88.2-14.95 86.27-17.05 84.34-19.15 80.5-19.15ZM74.65-19.9L80.75-19.9Q82.59-19.9 83.95-19.7L83.95-19.7Q86.15-23.15 86.15-26.25L86.15-26.25Q86.15-34.25 78.5-34.25L78.5-34.25 74.65-34.25 74.65-19.9ZM102.89 0L92.84 0.05 92.89-0.65 95.49-1Q95.84-1.05 96.09-1.65L96.09-1.65 106.89-35 110.19-35 121.69-0.95 125.14-0.75Q125.14-0.7 125.09 0L125.09 0 115.09 0.05Q115.09-0.4 115.14-0.65L115.14-0.65 117.74-1Q118.14-1.05 118.14-1.6L118.14-1.6 115.39-9.75 99.79-9.75 97.14-1.05 102.94-0.75Q102.94-0.7 102.89 0L102.89 0ZM115.04-10.75L107.24-34.05 100.09-10.75 115.04-10.75ZM129.49-33.95L126.84-34.25 126.89-35 133.74-35 153.19-1.4 152.94-33.25Q152.74-33.75 152.39-33.8L152.39-33.8 147.79-34.2Q147.74-34.5 147.74-34.95L147.74-34.95 157.24-35Q157.24-34.95 157.29-34.25L157.29-34.25 154.09-33.9 154.09 0 150.44 0 130.99-33.6 131.24-1.05 136.94-0.75Q136.94-0.7 136.89 0L136.89 0 126.84 0.05 126.89-0.65 129.49-1Q129.99-1.05 130.09-1.65L130.09-1.65 130.09-33.3Q129.99-33.9 129.49-33.95L129.49-33.95ZM170.44-0.95L170.44-0.95Q174.14-0.95 176.94-3.13 179.74-5.3 179.74-9.75L179.74-9.75Q179.74-11.75 178.76-13.18 177.79-14.6 176.19-15.38 174.59-16.15 172.69-16.73 170.79-17.3 168.89-17.95 166.99-18.6 165.39-19.5 163.79-20.4 162.81-22.05 161.84-23.7 161.84-26L161.84-26Q161.84-30 164.59-32.55 167.34-35.1 171.94-35.1 176.54-35.1 180.74-34.05L180.74-34.05 181.29-27.8 180.34-27.4 179.84-31.35Q176.14-34.1 172.89-34.1 169.64-34.1 167.44-32.13 165.24-30.15 165.24-26.2L165.24-26.2Q165.24-23.9 167.09-22.55 168.94-21.2 171.56-20.45 174.19-19.7 176.81-18.75 179.44-17.8 181.29-15.55 183.14-13.3 183.14-9.7L183.14-9.7Q183.14-4.85 179.69-2.4 176.24 0.05 170.59 0.05 164.94 0.05 160.79-3L160.79-3 160.84-8.3 161.79-8.55 161.89-5.7Q163.24-3.8 165.59-2.38 167.94-0.95 170.44-0.95ZM195.14-1.65L195.14-34 186.54-34 185.74-27.4 184.79-27.8 185.29-34 185.24-34 185.34-34.4 185.39-35 185.49-34.95 185.49-35 208.19-35 208.84-27.8 207.84-27.4 207.04-34 198.29-34 198.29-0.95 201.94-0.75Q201.94-0.7 201.89 0L201.89 0 191.89 0.05Q191.89-0.4 191.94-0.65L191.94-0.65 194.54-1Q195.04-1.05 195.14-1.65L195.14-1.65ZM231.53-34.95L241.28-35Q241.28-34.95 241.33-34.25L241.33-34.25 238.48-34 227.78-11.8 227.78-0.95 231.43-0.75Q231.43-0.7 231.38 0L231.38 0 221.38 0.05Q221.38-0.4 221.43-0.65L221.43-0.65 224.03-1Q224.53-1.05 224.63-1.65L224.63-1.65 224.63-11.8 213.38-33.75Q213.18-33.9 212.98-34L212.98-34 210.88-34.2Q210.83-34.5 210.83-34.95L210.83-34.95 220.93-35Q220.93-34.95 220.98-34.25L220.98-34.25 216.88-33.9 227.23-12.65 236.58-33.15Q236.58-33.75 236.13-33.8L236.13-33.8 231.58-34.2Q231.53-34.5 231.53-34.95L231.53-34.95ZM244.58-34.95L254.63-35Q254.63-34.95 254.68-34.25L254.68-34.25 251.23-33.95 251.23-1 265.03-1 266.03-9 266.98-8.75 266.23 0 254.63 0 244.58 0.05 244.63-0.65 247.23-1Q247.73-1.05 247.83-1.65L247.83-1.65 247.83-33.3Q247.73-33.9 247.23-33.95L247.23-33.95 244.63-34.2 244.58-34.95ZM272.53-33.95L269.88-34.25 269.93-35 291.33-35 291.28-34.85 291.93-27.8 290.93-27.4 290.13-34 276.53-34 276.53-17.85 288.48-17.85Q288.73-17.8 288.93-17.98 289.13-18.15 289.13-18.45L289.13-18.45 289.33-21.9 290.13-22 290.13-13.45Q290.08-13.45 289.38-13.4L289.38-13.4 289.18-16.85 276.53-16.85 276.53-1 291.48-1 292.43-9 293.38-8.75 292.63 0 279.93 0 269.88 0.05 269.93-0.65 272.53-1Q273.03-1.05 273.13-1.65L273.13-1.65 273.13-33.3Q273.03-33.9 272.53-33.95L272.53-33.95Z" opacity="1" transform="matrix(1,0,0,1,0,0)" fill="#000000" class="wordmark-text-0" data-fill-palette-color="primary" id="text-0"/>
                            </svg>
                          </g>
                        </svg>
                      </g>
                    </svg>
                  </g>
                </svg>
              </g>
              <g transform="matrix(1,0,0,1,406.41743317940865,0)">
                <svg viewBox="0 0 106.04474303143755 106.04474303143755" height="106.04474303143755" width="106.04474303143755">
                  <g>
                    <svg/>
                  </g>
                  <g id="icon-0">
                    <svg viewBox="0 0 106.04474303143755 106.04474303143755" height="106.04474303143755" width="106.04474303143755">
                      <g>
                        <rect width="96.42216449710341" height="96.42216449710341" x="4.811289267167069" y="4.811289267167069" fill="#000000" data-fill-palette-color="accent"/>
                        <rect width="96.42216449710341" height="96.42216449710341" x="-4.440892098500626e-15" y="-4.440892098500626e-15" fill="#000000" opacity="0.5" data-fill-palette-color="accent"/>
                      </g>
                      <g transform="matrix(1,0,0,1,13.746540763334494,19.453390782746645)">
                        <svg viewBox="0 0 78.55166150476856 67.13796146594426" height="67.13796146594426" width="78.55166150476856">
                          <g>
                            <svg xmlns="http://www.w3.org/2000/svg" version="1.1" x="0" y="0" viewBox="7.853 15.093 72.50395760464336 61.968999999999994" enable-background="new 0 0 90 90" height="67.13796146594426" width="78.55166150476856" class="icon-z$-0" data-fill-palette-color="background" id="z$-0">
                              <g fill="#ffffff" data-fill-palette-color="background">
                                <path d="M34.458 24.924c-2.88-1.648-5.694-2.871-6.841-3.495 0.137-0.478 0.404-0.789 0.725-1.162 0.466-0.54 1.048-1.212 1.048-2.375 0-1.544-1.257-2.799-2.801-2.799-1.543 0-2.798 1.255-2.798 2.799 0 0.511 0.416 0.926 0.926 0.926s0.926-0.416 0.926-0.926c0-0.522 0.424-0.947 0.946-0.947 0.522 0 0.947 0.425 0.947 0.947 0 0.453-0.184 0.685-0.597 1.165-0.434 0.503-1.014 1.178-1.209 2.332-0.49 0.315-1.266 0.937-2.516 1.945-0.618 0.497-1.43 0.964-2.256 1.467h-0.042l0.012 0.018c-0.03 0.019-0.06 0.037-0.089 0.055-2.094 0.172-3.999 1.299-5.083 3.128L7.853 41.326l6.532 3.073 4.848-10.116c0 0 1.839 10.014 1.683 13.383-0.328 7.012-6.088 27.412-6.088 27.412-0.106 0.485 0.009 0.988 0.321 1.374 0.306 0.388 0.78 0.61 1.275 0.61h22.057c0.495 0 0.959-0.223 1.274-0.61 0.309-0.386 0.425-0.889 0.318-1.374 0 0-5.764-20.4-6.091-27.412-0.158-3.369 1.688-13.383 1.688-13.383l4.842 10.116 6.53-3.073-7.895-13.322C38.132 26.291 36.394 25.198 34.458 24.924zM27.45 34.601l-5.657-8.483c2.059-1.438 4.008-2.754 4.835-3.223 1.033 0.533 3.642 1.973 6.312 3.475L27.45 34.601z" fill="#ffffff" data-fill-palette-color="background"/>
                                <path d="M73.943 31.843h0.236c4.507 0 5.444 0 5.937-0.51 0.167-0.173 0.251-0.395 0.24-0.642-0.018-0.448-0.358-0.895-2.104-1.967-3.782-2.33-10.174-6.1-12.061-7.125 0.136-0.477 0.404-0.788 0.724-1.162 0.469-0.54 1.049-1.211 1.049-2.375 0-1.544-1.256-2.8-2.8-2.8-1.543 0-2.799 1.256-2.799 2.8 0 0.511 0.415 0.926 0.926 0.926s0.927-0.416 0.927-0.926c0-0.522 0.425-0.947 0.946-0.947 0.522 0 0.947 0.425 0.947 0.947 0 0.453-0.184 0.685-0.597 1.165-0.432 0.501-1.01 1.172-1.207 2.314-1.743 0.935-8.314 4.811-12.166 7.183-1.746 1.075-2.087 1.523-2.103 1.966-0.011 0.246 0.071 0.469 0.239 0.643 0.489 0.51 1.427 0.51 6.054 0.51l1.984 0.024v2.383h-2.628l0.753 42.675h4.879l3.877-33.789 3.876 33.789h4.882l0.75-42.675h-1.632v-2.396L73.943 31.843zM72.084 34.25h-6.887-5.89v-2.37l3.803 0.1 8.974-0.114V34.25zM53.708 30.395c-0.306 0.015-0.915 0-1.452-0.025 2.63-1.621 10.899-6.258 12.941-7.308 2.047 1.053 10.362 5.715 12.953 7.307-0.541 0.027-1.173 0.027-1.463 0.027l-2.721-0.012L53.708 30.395z" fill="#ffffff" data-fill-palette-color="background"/>
                              </g>
                            </svg>
                          </g>
                        </svg>
                      </g>
                    </svg>
                  </g>
                </svg>
              </g>
            </svg>
          </g>
        </svg>
        <rect width="395.52" height="81.84568288321307" fill="none" stroke="none" visibility="hidden"/>
      </g>
    </svg>
  </g>
</svg>