<?xml version="1.0" encoding="utf-8"?>
<svg height="39px" width="188.4px" viewBox="0 0 2000 348" xmlns="http://www.w3.org/2000/svg">
  <g transform="matrix(1, 0, 0, 1, 7.8020001620352275, 1.53051402465276)">
    <svg viewBox="0 0 396 69" data-background-color="#ffffff" preserveAspectRatio="xMidYMid meet" height="348" width="2000" xmlns="http://www.w3.org/2000/svg">
      <g id="tight-bounds" transform="matrix(1,0,0,1,0.2400000000000091,-0.08006694418696725)">
        <svg viewBox="0 0 395.52 69.16013388837393" height="69.16013388837393" width="395.52">
          <g>
            <svg viewBox="0 0 395.52 69.16013388837393" height="69.16013388837393" width="395.52">
              <g>
                <svg viewBox="0 0 395.52 69.16013388837393" height="69.16013388837393" width="395.52">
                  <g id="textblocktransform">
                    <svg viewBox="0 0 395.52 69.16013388837393" height="69.16013388837393" width="395.52" id="textblock">
                      <g>
                        <svg viewBox="0 0 395.52 69.16013388837393" height="69.16013388837393" width="395.52">
                          <g transform="matrix(1,0,0,1,0,0)">
                            <svg width="395.52" viewBox="2.98 -37.7 230.44 40.30666666666667" height="69.16013388837393" data-palette-color="#000000">
                              <g class="wordmark-text-0" data-fill-palette-color="primary" id="text-0">
                                <path d="M23-5.86L23-5.86Q22.51-5.81 22.41-5.91L22.41-5.91Q22.22-5.81 22.05-5.71 21.88-5.62 21.68-5.47L21.68-5.47Q21-5.22 20.34-4.83 19.68-4.44 18.99-4.1L18.99-4.1Q18.6-3.91 18.24-3.78 17.87-3.66 17.48-3.47L17.48-3.47Q16.89-3.17 16.31-2.86 15.72-2.54 15.09-2.29L15.09-2.29Q14.75-2.2 14.43-2.1 14.11-2 13.77-1.9L13.77-1.9Q13.38-1.76 13.06-1.59 12.74-1.42 12.4-1.27L12.4-1.27Q12.16-1.17 11.89-1.1 11.62-1.03 11.33-0.88L11.33-0.88Q11.08-0.78 10.91-0.63 10.74-0.49 10.5-0.39L10.5-0.39Q10.11-0.24 9.69-0.1 9.28 0.05 8.89 0.24L8.89 0.24Q8.5 0.44 8.33 0.61 8.15 0.78 7.67 0.93L7.67 0.93Q7.18 1.22 7.13 1.25 7.08 1.27 6.98 1.27L6.98 1.27Q6.84 1.37 6.71 1.44 6.59 1.51 6.45 1.61L6.45 1.61Q6.15 1.61 5.86 1.66 5.57 1.71 5.27 1.71L5.27 1.71Q4.93 1.51 4.81 1.32 4.69 1.12 4.69 0.78L4.69 0.78Q4.49 0.54 4.32 0.24 4.15-0.05 3.96-0.29L3.96-0.29Q3.61-0.1 3.54-0.32 3.47-0.54 3.42-0.81 3.37-1.07 3.32-1.34 3.27-1.61 3.22-1.71L3.22-1.71Q2.98-2.64 2.98-3.08L2.98-3.08Q2.98-3.32 3.08-3.39 3.17-3.47 3.17-3.61L3.17-3.61Q3.22-4.1 3.27-4.74 3.32-5.37 3.32-6.05 3.32-6.74 3.32-7.42 3.32-8.11 3.32-8.64L3.32-8.64Q3.32-10.84 3.27-12.92 3.22-14.99 3.22-17.09L3.22-17.09Q3.22-18.07 3.27-19.04 3.32-20.02 3.32-21L3.32-21Q3.32-23.39 3.39-25.73 3.47-28.08 3.47-30.47L3.47-30.47Q3.47-31.45 3.37-32.45 3.27-33.45 3.22-34.47L3.22-34.47Q3.17-35.01 3.27-35.33 3.37-35.64 3.32-35.99L3.32-35.99Q3.47-36.04 3.86-36.04 4.25-36.04 4.66-36.06 5.08-36.08 5.44-36.11 5.81-36.13 5.91-36.18L5.91-36.18Q6.25-35.94 6.59-35.94L6.59-35.94Q6.93-35.94 7.23-36.23L7.23-36.23Q7.47-36.13 7.5-36.08 7.52-36.04 7.76-36.04L7.76-36.04Q8.2-36.08 8.45-36.11 8.69-36.13 8.89-36.13L8.89-36.13Q9.42-35.74 9.55-35.18 9.67-34.62 9.72-34.01 9.77-33.4 9.79-32.79 9.81-32.18 9.81-31.79L9.81-31.79Q9.81-31.49 9.86-31.18 9.91-30.86 9.91-30.52L9.91-30.52Q9.91-30.27 9.89-30.03 9.86-29.79 9.86-29.54L9.86-29.54Q9.86-28.13 9.89-26.66 9.91-25.2 9.91-23.78L9.91-23.78Q9.91-21.24 9.84-18.68 9.77-16.11 9.77-13.57L9.77-13.57Q9.77-13.04 9.81-12.5 9.86-11.96 9.86-11.43L9.86-11.43Q9.86-11.13 9.84-10.84 9.81-10.55 9.81-10.25L9.81-10.25Q9.81-8.45 9.96-6.64L9.96-6.64Q10.16-6.69 10.79-6.91 11.43-7.13 12.11-7.4 12.79-7.67 13.38-7.93 13.96-8.2 14.11-8.35L14.11-8.35Q14.31-8.35 14.65-8.5 14.99-8.64 15.38-8.86 15.77-9.08 16.14-9.28 16.5-9.47 16.65-9.62L16.65-9.62Q16.6-10.6 16.6-11.6 16.6-12.6 16.6-13.57L16.6-13.57Q16.6-16.26 16.67-18.95 16.75-21.63 16.75-24.41L16.75-24.41Q16.75-26.12 16.7-27.83 16.65-29.54 16.65-31.25L16.65-31.25Q16.65-31.79 16.67-32.35 16.7-32.91 16.7-33.45L16.7-33.45Q16.7-34.28 16.67-35.08 16.65-35.89 16.75-36.72L16.75-36.72Q17.24-36.96 17.29-36.96L17.29-36.96Q17.58-36.96 17.7-36.96 17.82-36.96 17.92-36.87L17.92-36.87Q18.07-36.82 18.19-36.84 18.31-36.87 18.46-36.87L18.46-36.87Q18.7-36.87 18.95-36.77 19.19-36.67 19.43-36.67L19.43-36.67Q19.82-36.72 19.85-36.57 19.87-36.43 20.02-36.43L20.02-36.43Q20.41-36.57 20.56-36.43L20.56-36.43Q20.7-36.33 21.09-36.16 21.48-35.99 21.92-35.79 22.36-35.6 22.71-35.42 23.05-35.25 23.05-35.11L23.05-35.11Q23.19-34.33 23.14-33.45 23.1-32.57 23.1-31.79L23.1-31.79Q23.1-31.1 23.14-30.42 23.19-29.74 23.19-29.05L23.19-29.05Q23.19-28.66 23.19-28.27 23.19-27.88 23.24-27.54L23.24-27.54Q23.29-27.29 23.29-27.12 23.29-26.95 23.29-26.76L23.29-26.76Q23.29-26.51 23.39-26.12L23.39-26.12Q23.34-25.88 23.34-25.61 23.34-25.34 23.34-25.1L23.34-25.1Q23.34-24.41 23.39-23.68 23.44-22.95 23.44-22.22L23.44-22.22Q23.44-21.73 23.36-21.29 23.29-20.85 23.29-20.41L23.29-20.41 23.34-19.48Q23.34-18.99 23.39-18.51 23.44-18.02 23.44-17.48L23.44-17.48Q23.44-17.24 23.41-16.99 23.39-16.75 23.34-16.5L23.34-16.5Q23.29-16.26 23.29-15.97 23.29-15.67 23.29-15.43L23.29-15.43Q23.29-14.75 23.34-14.06 23.39-13.38 23.39-12.7L23.39-12.7Q23.39-12.26 23.36-11.84 23.34-11.43 23.34-10.99L23.34-10.99Q23.34-10.11 23.41-9.18 23.49-8.25 23.49-7.37L23.49-7.37Q23.49-6.98 23.39-6.54 23.29-6.1 23-5.86ZM51.22-4.69L51.22-4.69Q51.17-3.96 51.54-3.59 51.9-3.22 52.15-2.69L52.15-2.69Q52.05-2 52.29-1.61L52.29-1.61Q52.15-1.32 52-0.95 51.85-0.59 51.56-0.34L51.56-0.34Q50.78 0 50.63 0.24 50.49 0.49 50.05 0.49L50.05 0.49Q49.8 0.73 49.51 1 49.22 1.27 48.97 1.51L48.97 1.51Q48.73 1.42 48.63 1.27 48.53 1.12 48.34 0.88L48.34 0.88Q47.85 0.73 47.46 0.37 47.07 0 46.77-0.46 46.48-0.93 46.21-1.44 45.94-1.95 45.75-2.39L45.75-2.39Q45.07-3.66 44.36-4.96 43.65-6.25 42.92-7.52L42.92-7.52Q42.53-8.15 42.16-8.81 41.79-9.47 41.4-10.16L41.4-10.16Q41.31-10.25 41.21-10.38 41.11-10.5 41.01-10.64L41.01-10.64Q40.67-11.13 40.5-11.74 40.33-12.35 39.79-12.74L39.79-12.74Q38.86-12.84 38.11-12.48 37.35-12.11 36.77-11.52L36.77-11.52Q36.81-11.18 36.81-10.89 36.81-10.6 36.81-10.3L36.81-10.3Q36.81-9.18 36.72-8.15 36.62-7.13 36.62-6.01L36.62-6.01Q36.62-5.52 36.67-5 36.72-4.49 36.81-4L36.81-4Q36.67-3.47 36.67-2.83L36.67-2.83Q36.67-2.49 36.74-2.2 36.81-1.9 36.81-1.56L36.81-1.56Q36.81-1.07 36.5-0.9 36.18-0.73 36.28-0.29L36.28-0.29Q35.69-0.05 35.15 0.2 34.62 0.44 34.03 0.54L34.03 0.54Q33.79 0.59 33.54 0.56 33.3 0.54 33.1 0.63L33.1 0.63Q32.86 0.73 32.71 1 32.57 1.27 32.32 1.27L32.32 1.27Q32.03 1.27 31.98 1.05 31.93 0.83 31.78 0.68L31.78 0.68Q31.54 0.59 31.39 0.59 31.25 0.59 31.1 0.44L31.1 0.44Q31.15 0 30.91-0.22 30.66-0.44 30.66-1.12L30.66-1.12Q30.66-1.66 30.73-2.15 30.81-2.64 30.81-3.17L30.81-3.17Q30.81-3.61 30.69-3.98 30.56-4.35 30.47-4.79L30.47-4.79Q30.42-4.98 30.47-5.18 30.52-5.37 30.52-5.57L30.52-5.57Q30.52-6.45 30.44-7.35 30.37-8.25 30.37-9.13L30.37-9.13Q30.37-9.47 30.37-9.77 30.37-10.06 30.42-10.35L30.42-10.35Q30.52-10.64 30.59-10.84 30.66-11.04 30.66-11.33L30.66-11.33Q30.66-12.26 30.47-13.16 30.27-14.06 30.27-14.94L30.27-14.94Q30.27-15.43 30.3-15.94 30.32-16.46 30.32-16.94L30.32-16.94Q30.32-18.36 30.27-19.73 30.22-21.09 30.22-22.46L30.22-22.46Q30.22-23.44 30.27-24.39 30.32-25.34 30.32-26.32L30.32-26.32Q30.32-27.54 30.22-28.74 30.12-29.93 30.12-31.2L30.12-31.2Q30.12-31.64 30.08-31.79 30.03-31.93 29.93-31.96 29.83-31.98 29.71-32.01 29.59-32.03 29.49-32.18L29.49-32.18Q29.49-32.47 29.73-32.59 29.98-32.71 29.98-33.4L29.98-33.4Q29.98-33.79 29.9-34.18 29.83-34.57 29.83-34.96L29.83-34.96Q29.83-35.55 30.08-36.13 30.32-36.72 30.52-37.26L30.52-37.26Q31.1-37.3 31.32-37.26 31.54-37.21 31.78-37.3L31.78-37.3Q31.93-36.77 32.42-36.74 32.91-36.72 33.3-36.62L33.3-36.62Q33.74-36.57 34.15-36.4 34.57-36.23 34.96-36.23L34.96-36.23Q35.06-35.94 35.37-35.82 35.69-35.69 36.03-35.6L36.03-35.6Q36.42-35.64 36.64-35.94 36.86-36.23 37.25-36.23L37.25-36.23Q37.55-36.23 37.94-35.82 38.33-35.4 38.52-35.16L38.52-35.16Q38.72-35.01 39.26-34.52 39.79-34.03 40.43-33.52 41.06-33.01 41.6-32.54 42.14-32.08 42.28-32.03L42.28-32.03Q44.28-30.03 46.02-28.39 47.75-26.76 49.8-25.44L49.8-25.44Q49.85-25.29 49.92-25.2 50-25.1 50.1-24.95L50.1-24.95Q50.1-24.56 49.95-24.37 49.8-24.17 49.8-23.88L49.8-23.88Q49.8-23.73 49.88-23.58 49.95-23.44 49.95-23.29L49.95-23.29Q50-23.1 49.97-22.92 49.95-22.75 49.95-22.56L49.95-22.56Q49.95-22.07 50.27-21.68 50.58-21.29 50.58-20.8L50.58-20.8Q50.49-20.36 50.19-20.26 49.9-20.17 49.7-20.02L49.7-20.02Q49.61-19.92 49.53-19.78 49.46-19.63 49.36-19.53L49.36-19.53Q48.29-19.04 47.8-18.63 47.31-18.21 46.77-17.82L46.77-17.82Q46.63-17.72 46.29-17.5 45.94-17.29 45.6-17.07 45.26-16.85 44.99-16.6 44.72-16.36 44.72-16.21L44.72-16.21Q44.72-15.87 45.14-15.26 45.55-14.65 45.75-14.31L45.75-14.31Q46.29-13.43 46.73-12.57 47.17-11.72 47.7-10.89L47.7-10.89Q48.68-9.38 49.53-7.81 50.39-6.25 51.22-4.69ZM43.26-22.85L43.26-22.85Q42.14-24.27 40.84-25.42 39.55-26.56 38.38-27.83L38.38-27.83 37.84-27.93Q37.55-28.42 37.18-28.78 36.81-29.15 36.42-29.54L36.42-29.54Q36.47-29 36.47-28.52 36.47-28.03 36.47-27.49L36.47-27.49Q36.47-25.93 36.4-24.44 36.33-22.95 36.33-21.44L36.33-21.44Q36.33-19.92 36.47-18.55L36.47-18.55Q37.5-18.55 38.33-19.14L38.33-19.14Q38.67-19.38 38.96-19.65 39.26-19.92 39.6-20.17L39.6-20.17Q39.99-20.41 40.5-20.75 41.01-21.09 41.53-21.44 42.04-21.78 42.5-22.14 42.97-22.51 43.26-22.85ZM74.26-27.49L74.26-27.49Q74.26-26.95 74.48-26.59 74.7-26.22 74.7-25.93L74.7-25.93Q74.6-25.44 74.9-24.78 75.19-24.12 75.19-23.44L75.19-23.44Q75.09-23.14 74.43-22.68 73.77-22.22 72.97-21.68 72.16-21.14 71.41-20.63 70.65-20.12 70.36-19.82L70.36-19.82Q70.6-19.43 70.97-19.19 71.33-18.95 71.67-18.7L71.67-18.7Q71.97-18.46 72.53-17.99 73.09-17.53 73.7-16.99 74.31-16.46 74.82-15.97 75.34-15.48 75.48-15.23L75.48-15.23Q75.58-15.19 75.65-14.89 75.73-14.6 75.78-14.23 75.83-13.87 75.85-13.53 75.87-13.18 75.87-13.09L75.87-13.09Q75.83-12.55 75.9-12.3 75.97-12.06 76.04-11.79 76.12-11.52 76.17-11.28 76.22-11.04 76.22-11.04L76.22-11.04Q76.22-10.74 75.95-10.5 75.68-10.25 75.43-10.06L75.43-10.06Q75.19-9.86 74.97-9.67 74.75-9.47 74.51-9.23L74.51-9.23Q74.21-8.98 73.85-8.76 73.48-8.54 73.19-8.3L73.19-8.3Q72.99-8.2 72.85-8.03 72.7-7.86 72.55-7.76L72.55-7.76Q72.11-7.37 71.58-7.01 71.04-6.64 70.55-6.35L70.55-6.35Q70.01-6.01 69.53-5.64 69.04-5.27 68.5-4.88L68.5-4.88Q67.77-4.44 67.06-4.03 66.35-3.61 65.67-3.17L65.67-3.17Q65.33-2.93 65.01-2.69 64.69-2.44 64.35-2.25L64.35-2.25Q63.37-1.71 62.4-1.12 61.42-0.54 60.49 0.15L60.49 0.15Q59.71 0.34 59.37 0.46 59.03 0.59 58.69 0.59L58.69 0.59Q58.39 0.59 58.32 0.37 58.25 0.15 58.05 0.15L58.05 0.15Q57.32 0.24 57.25 0.17 57.17 0.1 57.03 0L57.03 0Q56.29 0.1 55.81 0L55.81 0Q55.66-0.24 55.61-0.61 55.56-0.98 55.32-1.22L55.32-1.22Q55.41-1.71 55.34-2.15 55.27-2.59 55.37-3.03L55.37-3.03Q55.22-3.61 55.22-4.1L55.22-4.1Q55.22-4.74 55.37-5.42L55.37-5.42Q55.22-5.86 55.22-6.3L55.22-6.3Q55.22-6.69 55.27-7.08 55.32-7.47 55.32-7.86L55.32-7.86Q55.32-8.35 55.12-8.74L55.12-8.74Q55.12-9.62 55.1-10.47 55.07-11.33 55.07-12.21L55.07-12.21Q55.07-12.6 55.07-12.99 55.07-13.38 55.12-13.82L55.12-13.82Q55.07-14.06 55.07-14.55L55.07-14.55Q55.07-14.84 55.17-15.06 55.27-15.28 55.27-15.53L55.27-15.53Q55.27-16.06 55.2-16.55 55.12-17.04 55.12-17.58L55.12-17.58Q55.12-18.07 55.2-18.51 55.27-18.95 55.27-19.43L55.27-19.43Q55.12-19.63 55.07-19.87 55.02-20.12 55.02-20.36L55.02-20.36Q55.02-20.56 55.12-20.95L55.12-20.95Q55.12-21.34 55.07-21.78 55.02-22.22 55.02-22.61L55.02-22.61Q55.02-22.8 55.05-22.95 55.07-23.1 55.12-23.29L55.12-23.29Q55.02-23.63 55.02-23.97 55.02-24.32 55.02-24.66L55.02-24.66Q55.02-25.1 55.07-25.56 55.12-26.03 55.12-26.46L55.12-26.46Q55.07-27.2 55.15-27.61 55.22-28.03 55.27-28.47L55.27-28.47 55.27-31.25Q55.27-31.64 55.17-32.1 55.07-32.57 55.07-33.01L55.07-33.01Q55.07-33.25 55.12-33.74 55.17-34.23 55.27-34.47L55.27-34.47Q55.95-35.5 56.88-35.64L56.88-35.64Q57.08-35.74 57.17-35.91 57.27-36.08 57.61-36.08L57.61-36.08Q58.2-36.57 58.39-36.84 58.59-37.11 58.88-37.35L58.88-37.35Q59.03-37.35 59.15-37.43 59.27-37.5 59.47-37.5L59.47-37.5Q59.81-37.4 60.03-37.3 60.25-37.21 60.49-37.16L60.49-37.16Q61.47-36.43 62.42-35.72 63.37-35.01 64.35-34.23L64.35-34.23Q64.79-33.84 65.2-33.45 65.62-33.06 66.06-32.71L66.06-32.71Q66.3-32.57 66.6-32.42 66.89-32.28 67.13-32.08L67.13-32.08Q67.67-31.74 68.21-31.37 68.75-31.01 69.28-30.66L69.28-30.66 72.8-28.47Q73.19-28.22 73.55-27.98 73.92-27.73 74.26-27.49ZM67.28-25.39L67.28-25.39Q66.55-25.73 65.89-26.22 65.23-26.71 64.5-26.95L64.5-26.95Q64.11-27.34 63.67-27.49 63.23-27.64 62.84-27.93L62.84-27.93Q62.4-28.32 62.06-28.61 61.71-28.91 61.18-29.15L61.18-29.15Q60.93-27.64 60.81-26.2 60.69-24.76 60.69-23.29L60.69-23.29Q60.69-21.78 60.98-20.41L60.98-20.41Q61.52-20.65 62.01-20.95 62.5-21.24 62.98-21.53L62.98-21.53Q63.18-21.63 63.35-21.73 63.52-21.83 63.76-21.92L63.76-21.92Q64.01-22.12 64.25-22.31 64.5-22.51 64.74-22.66L64.74-22.66Q65.28-23.05 65.79-23.36 66.3-23.68 66.84-24.07L66.84-24.07Q67.08-24.27 67.38-24.39 67.67-24.51 67.96-24.76L67.96-24.76Q67.91-24.95 67.65-25.07 67.38-25.2 67.28-25.39ZM65.86-16.26L65.86-16.26Q65.72-16.26 65.57-16.33 65.42-16.41 65.23-16.41L65.23-16.41Q64.64-16.02 64.13-15.75 63.62-15.48 63.08-15.14L63.08-15.14Q62.84-14.99 62.59-14.79 62.35-14.6 62.1-14.5L62.1-14.5Q61.47-14.11 61.13-13.84 60.79-13.57 60.59-13.18L60.59-13.18Q60.69-11.82 60.66-10.45 60.64-9.08 60.64-7.67L60.64-7.67Q60.64-7.42 60.79-7.13L60.79-7.13Q61.23-7.18 62.35-7.79 63.47-8.4 64.72-9.18 65.96-9.96 67.11-10.69 68.26-11.43 68.79-11.77L68.79-11.77Q69.18-11.87 69.7-12.16 70.21-12.45 70.31-12.84L70.31-12.84Q69.38-13.92 68.16-14.62 66.94-15.33 65.86-16.26ZM89.69-37.01L89.79-36.96Q90.03-36.08 90.28-35.23 90.52-34.38 90.86-33.54L90.86-33.54Q91.59-33.45 91.76-33.4 91.94-33.35 92.18-33.25L92.18-33.25Q92.72-31.98 92.84-30.54 92.96-29.1 93.21-27.73L93.21-27.73Q94.13-26.51 94.55-25.12 94.96-23.73 95.5-22.31L95.5-22.31Q95.65-21.83 95.7-21.7 95.74-21.58 95.74-21.48L95.74-21.48Q96.04-20.65 96.33-19.78 96.62-18.9 96.97-18.07L96.97-18.07Q97.11-17.63 97.28-17.21 97.45-16.8 97.6-16.41L97.6-16.41Q97.75-15.92 97.87-15.41 97.99-14.89 98.14-14.4L98.14-14.4Q98.48-13.43 98.87-12.45 99.26-11.47 99.65-10.5L99.65-10.5Q99.8-10.16 100.21-8.98 100.63-7.81 101.07-6.52 101.51-5.22 101.87-4.13 102.24-3.03 102.24-2.78L102.24-2.78Q102.24-2.39 102.31-1.98 102.39-1.56 102.43-1.12L102.43-1.12Q102.24-0.63 101.95-0.59 101.65-0.54 101.41-0.63L101.41-0.63Q101.16-0.54 100.94-0.44 100.72-0.34 100.53-0.24L100.53-0.24Q100.38-0.2 100.29-0.1 100.19 0 100.04 0L100.04 0Q99.46 0 99.28 0.12 99.11 0.24 98.77 0.24L98.77 0.24Q98.33 0.1 98.21 0.22 98.09 0.34 97.99 0.39L97.99 0.39Q97.8 0.49 97.55 0.49 97.31 0.49 97.06 0.54L97.06 0.54Q96.97 0.34 96.89 0.15 96.82-0.05 96.67-0.29L96.67-0.29Q96.14-1.07 95.92-1.81 95.7-2.54 95.55-2.98L95.55-2.98Q95.31-3.52 95.13-4.05 94.96-4.59 94.72-5.13L94.72-5.13Q94.43-5.03 94.18-4.91 93.94-4.79 93.79-4.59L93.79-4.59Q93.21-4.59 93.21-4.44 93.21-4.3 93.11-4.15L93.11-4.15Q92.81-4.05 92.64-3.96 92.47-3.86 92.08-3.91L92.08-3.91Q91.84-3.66 91.59-3.49 91.35-3.32 90.96-3.27L90.96-3.27Q90.57-2.88 90.15-2.61 89.74-2.34 89.2-2.49L89.2-2.49Q88.52-2.34 87.83-2.22 87.15-2.1 86.47-2.1L86.47-2.1Q85.69-2.34 85.49-2.54 85.3-2.73 84.9-2.73L84.9-2.73Q84.95-3.42 84.61-3.66L84.61-3.66Q84.61-3.81 84.64-4.13 84.66-4.44 84.76-4.54L84.76-4.54Q85.39-4.83 85.49-5.18 85.59-5.52 86.03-5.62L86.03-5.62Q86.13-5.81 86.25-5.98 86.37-6.15 86.47-6.35L86.47-6.35Q86.71-6.45 86.88-6.49 87.05-6.54 87.15-6.79L87.15-6.79Q87.39-6.79 87.88-7.1 88.37-7.42 88.52-7.62L88.52-7.62Q88.91-7.76 89.01-7.89 89.1-8.01 89.25-8.11L89.25-8.11Q89.74-8.06 89.89-8.2L89.89-8.2Q90.28-8.01 90.76-8.01L90.76-8.01Q90.96-8.01 91.11-8.03 91.25-8.06 91.45-8.06L91.45-8.06Q91.84-8.45 92.45-8.57 93.06-8.69 93.45-9.08L93.45-9.08Q93.3-9.47 93.21-10.03 93.11-10.6 92.86-10.94L92.86-10.94Q92.77-11.57 92.55-12.16 92.33-12.74 92.18-13.28L92.18-13.28Q91.64-15.33 90.91-17.29 90.18-19.24 89.69-21.29L89.69-21.29Q89.59-21.53 89.47-21.8 89.35-22.07 89.25-22.31L89.25-22.31Q89.01-21.73 89.01-21.66 89.01-21.58 88.91-21.48L88.91-21.48Q88.86-21.24 88.81-21.07 88.76-20.9 88.66-20.65L88.66-20.65Q88.52-20.26 88.4-19.8 88.27-19.34 88.18-18.95L88.18-18.95Q87.93-18.12 87.74-17.21 87.54-16.31 87.3-15.43L87.3-15.43Q86.81-13.92 86.3-12.43 85.78-10.94 85.3-9.42L85.3-9.42Q85.2-8.74 85.08-8.37 84.95-8.01 84.83-7.64 84.71-7.28 84.64-6.93 84.56-6.59 84.56-6.4L84.56-6.4Q83.88-4.83 83.42-3.22 82.95-1.61 82.27-0.1L82.27-0.1Q82.07 0 81.93 0.15 81.78 0.29 81.58 0.29L81.58 0.29Q81.19 0.29 81.17 0.1 81.14-0.1 80.95-0.1L80.95-0.1Q80.75-0.1 80.61-0.02 80.46 0.05 80.31 0.15L80.31 0.15Q80.07 0.05 79.75 0.02 79.44 0 79.29-0.2L79.29-0.2Q78.95 0.05 78.61 0.05L78.61 0.05Q78.22 0.05 77.82-0.2L77.82-0.2Q77.53-0.1 77.24-0.1L77.24-0.1Q77.09-0.1 76.9-0.15 76.7-0.2 76.6-0.29L76.6-0.29Q76.56-0.49 76.56-0.68 76.56-0.88 76.56-1.12L76.56-1.12Q76.56-1.61 76.46-1.86L76.46-1.86Q77.34-4.35 78.17-6.91 79-9.47 79.83-12.11L79.83-12.11Q80.27-13.33 80.68-14.5 81.1-15.67 81.49-16.89L81.49-16.89Q81.68-17.58 81.83-18.19 81.97-18.8 82.22-19.38L82.22-19.38Q82.61-20.65 83.02-21.95 83.44-23.24 83.78-24.51L83.78-24.51Q83.98-24.66 84.03-24.85 84.07-25.05 84.17-25.29L84.17-25.29 84.12-25.93Q84.47-26.42 84.59-26.78 84.71-27.15 84.76-27.54L84.76-27.54Q85-28.13 85.2-28.81 85.39-29.49 85.49-30.08L85.49-30.08Q85.59-30.86 85.61-31.86 85.64-32.86 85.88-33.54L85.88-33.54Q85.98-33.74 86.05-33.81 86.13-33.89 86.13-34.13L86.13-34.13Q86.22-34.23 86.35-34.35 86.47-34.47 86.52-34.62L86.52-34.62Q86.76-35.01 86.69-35.3 86.61-35.6 86.61-35.94L86.61-35.94Q87.05-36.18 87-36.38 86.96-36.57 86.96-36.77L86.96-36.77Q86.96-37.01 87.27-37.23 87.59-37.45 87.69-37.7L87.69-37.7Q87.98-37.65 88.27-37.62 88.57-37.6 88.86-37.65L88.86-37.65Q89.2-37.01 89.69-37.01L89.69-37.01ZM121.18-36.43L121.18-36.43Q121.96-36.52 122.38-36.3 122.79-36.08 123.23-36.04L123.23-36.04Q123.48-35.99 123.74-36.01 124.01-36.04 124.31-36.04L124.31-36.04Q124.94-36.04 125.31-35.89 125.67-35.74 126.06-35.25L126.06-35.25Q126.16-35.16 126.33-34.99 126.5-34.81 126.5-34.67L126.5-34.67Q126.5-34.28 126.31-33.98 126.11-33.69 126.11-33.15L126.11-33.15Q126.11-32.32 126.31-31.52 126.5-30.71 126.55-29.88L126.55-29.88Q126.8-26.86 126.82-23.8 126.85-20.75 126.85-17.77L126.85-17.77Q126.85-17.38 126.82-17.07 126.8-16.75 126.6-16.5L126.6-16.5 126.6-15.87Q126.55-14.6 126.65-13.31 126.75-12.01 126.75-10.74L126.75-10.74Q126.75-9.62 126.63-8.5 126.5-7.37 126.5-6.2L126.5-6.2Q126.5-5.13 126.65-4.1 126.8-3.08 126.8-2L126.8-2Q126.55-1.56 126.5-1.32 126.45-1.07 126.31-0.88L126.31-0.88Q126.16-0.78 125.99-0.83 125.82-0.88 125.72-0.73L125.72-0.73Q125.48-0.44 125.38-0.05 125.28 0.34 124.89 0.59L124.89 0.59Q124.79 1.27 124.38 1.64 123.96 2 123.77 2.59L123.77 2.59Q123.18 2.64 122.96 2.54 122.74 2.44 122.5 2.34L122.5 2.34Q122.45 1.51 122.52 1.15 122.6 0.78 122.6 0.39L122.6 0.39Q122.6-0.1 122.35-0.34 122.11-0.59 122.01-0.98L122.01-0.98Q121.47-1.32 121.28-1.44 121.08-1.56 120.94-1.76L120.94-1.76Q120.64-2.15 120.45-2.59 120.25-3.03 120.01-3.42L120.01-3.42Q119.33-4.54 118.62-5.71 117.91-6.88 117.08-8.01L117.08-8.01Q116.93-8.25 116.74-8.45 116.54-8.64 116.4-8.89L116.4-8.89Q115.57-10.21 114.83-11.57 114.1-12.94 113.12-14.16L113.12-14.16Q112.73-14.65 112.54-15.26 112.34-15.87 111.95-16.31L111.95-16.31Q111.9-16.06 111.9-15.77 111.9-15.48 111.9-15.23L111.9-15.23Q111.9-13.57 111.98-11.94 112.05-10.3 112.05-8.64L112.05-8.64Q112.05-8.3 111.98-8.03 111.9-7.76 111.9-7.42L111.9-7.42Q111.9-6.93 111.95-6.49 112-6.05 112-5.62L112-5.62Q112-5.08 111.98-4.59 111.95-4.1 111.9-3.61L111.9-3.61Q111.81-2.98 111.66-2.42 111.51-1.86 111.51-1.27L111.51-1.27Q111.51-0.93 111.59-0.63 111.66-0.34 111.66-0.1L111.66-0.1Q111.32 0.44 110.81 0.44 110.29 0.44 109.95 0.83L109.95 0.83Q109.66 0.78 109.49 0.88 109.32 0.98 109.17 0.98L109.17 0.98Q108.97 0.98 108.85 0.93 108.73 0.88 108.58 0.88L108.58 0.88Q108.34 0.88 108.1 1.12 107.85 1.37 107.61 1.37L107.61 1.37Q107.46 1.37 107.09 1.17 106.73 0.98 106.31 0.71 105.9 0.44 105.56 0.17 105.21-0.1 105.21-0.24L105.21-0.24Q105.17-0.49 105.17-0.93L105.17-0.93Q105.17-1.51 105.24-2.08 105.31-2.64 105.41-3.22L105.41-3.22Q105.56-4.88 105.56-6.52 105.56-8.15 105.56-9.81L105.56-9.81Q105.56-10.5 105.58-11.18 105.61-11.87 105.61-12.55L105.61-12.55Q105.61-14.16 105.48-15.8 105.36-17.43 105.36-19.04L105.36-19.04Q105.36-20.17 105.46-21.26 105.56-22.36 105.56-23.44L105.56-23.44Q105.56-24.27 105.51-25.05 105.46-25.83 105.46-26.66L105.46-26.66Q105.41-27.2 105.46-27.81 105.51-28.42 105.51-28.96L105.51-28.96Q105.51-29.59 105.34-30.15 105.17-30.71 105.17-31.2L105.17-31.2Q105.17-31.49 105.29-31.76 105.41-32.03 105.41-32.32L105.41-32.32Q105.41-32.71 105.29-33.11 105.17-33.5 105.17-33.89L105.17-33.89Q105.17-34.28 105.26-34.62 105.36-34.96 105.36-35.35L105.36-35.35Q106.04-35.69 106.58-35.69L106.58-35.69Q107.12-35.69 107.36-35.3L107.36-35.3Q107.36-34.42 107.46-33.96 107.56-33.5 107.61-33.01L107.61-33.01Q107.61-32.71 107.58-32.32 107.56-31.93 107.61-31.57 107.66-31.2 107.83-30.96 108-30.71 108.44-30.71L108.44-30.71Q108.53-30.47 108.68-30.27 108.83-30.08 108.88-29.79L108.88-29.79Q109.17-29.98 109.22-30.32 109.27-30.66 109.22-30.96L109.22-30.96Q109.46-30.86 109.66-30.88 109.85-30.91 110.05-30.81L110.05-30.81Q110.15-30.13 110.29-29.61 110.44-29.1 110.39-28.42L110.39-28.42Q111.37-27.69 112.07-26.34 112.78-25 113.42-23.93L113.42-23.93Q113.76-23.39 114.22-22.92 114.69-22.46 114.93-21.83L114.93-21.83Q115.32-21.58 115.57-21.19 115.81-20.8 116.01-20.41L116.01-20.41Q116.98-18.7 118.15-17.09 119.33-15.48 120.6-13.92L120.6-13.92Q120.64-14.26 120.64-14.58 120.64-14.89 120.64-15.23L120.64-15.23 120.6-19.63Q120.6-20.02 120.57-20.36 120.55-20.7 120.5-21.09L120.5-21.09Q120.4-22.36 120.45-23.58 120.5-24.8 120.45-26.07L120.45-26.07Q120.35-27.39 120.33-28.76 120.3-30.13 120.2-31.49L120.2-31.49Q120.16-32.32 120.11-33.15 120.06-33.98 120.06-34.81L120.06-34.81Q120.06-35.84 120.25-36.67L120.25-36.67Q120.35-36.77 120.47-36.84 120.6-36.91 120.79-36.91L120.79-36.91Q121.08-36.91 121.18-36.43ZM142.08-35.99L142.08-35.99Q142.18-35.79 142.3-35.72 142.42-35.64 142.47-35.4L142.47-35.4Q142.81-35.16 143.01-35.03 143.2-34.91 143.25-34.62L143.25-34.62Q143.69-34.28 143.76-34.18 143.84-34.08 143.88-33.94L143.88-33.94Q144.13-33.74 144.35-33.59 144.57-33.45 144.67-33.15L144.67-33.15Q145.06-32.81 145.15-32.62 145.25-32.42 145.3-32.18L145.3-32.18Q145.1-31.84 144.52-31.25 143.93-30.66 143.2-30 142.47-29.35 141.78-28.74 141.1-28.13 140.71-27.78L140.71-27.78Q140.61-27.59 140.47-27.44 140.32-27.29 140.22-27.1L140.22-27.1Q139.93-26.86 139.68-26.59 139.44-26.32 139.1-26.17L139.1-26.17Q138.61-25.49 137.73-24.83 136.85-24.17 136.56-23.54L136.56-23.54Q136.61-23.39 136.78-23.24 136.95-23.1 137.05-23L137.05-23Q137.44-22.61 137.98-22.29 138.51-21.97 138.9-21.58L138.9-21.58Q139.29-21.24 139.68-20.92 140.08-20.61 140.47-20.26L140.47-20.26Q140.66-20.07 140.95-19.68L140.95-19.68Q141.44-19.29 141.91-18.97 142.37-18.65 142.81-18.26L142.81-18.26Q143.74-17.48 144.62-16.67 145.5-15.87 146.47-15.09L146.47-15.09 146.86-14.65Q146.86-14.26 147.08-13.75 147.3-13.23 147.5-12.89L147.5-12.89Q147.4-12.4 147.52-12.28 147.64-12.16 147.74-12.06L147.74-12.06Q147.69-11.13 147.79-10.84L147.79-10.84Q146.96-10.11 146.25-9.5 145.54-8.89 145.01-8.3L145.01-8.3Q144.57-7.76 144.1-7.35 143.64-6.93 143.1-6.45L143.1-6.45Q142.81-6.05 142.61-5.91L142.61-5.91Q142.27-5.57 141.93-5.37L141.93-5.37Q141.34-4.83 140.78-4.35 140.22-3.86 139.68-3.37L139.68-3.37Q139.29-3.03 138.95-2.71 138.61-2.39 138.27-2L138.27-2Q137.98-1.71 137.61-1.32 137.24-0.93 136.85-0.68L136.85-0.68Q136.71-0.39 136.46-0.17 136.22 0.05 136.02 0.29L136.02 0.29Q135.68 0.49 135.39 0.68 135.09 0.88 134.7 1.07L134.7 1.07Q134.31 0.78 133.95 0.54 133.58 0.29 133.14 0.2L133.14 0.2Q132.85-0.05 132.7-0.29 132.56-0.54 132.17-0.63L132.17-0.63Q132.07-0.78 131.95-0.95 131.82-1.12 131.73-1.32L131.73-1.32Q131.14-1.37 130.8-2.05L130.8-2.05Q130.9-2.34 131.07-2.49 131.24-2.64 131.14-3.03L131.14-3.03Q131.43-3.52 131.85-3.88 132.26-4.25 132.65-4.64L132.65-4.64Q133.09-5.03 133.46-5.44 133.83-5.86 134.26-6.25L134.26-6.25Q134.51-6.49 134.75-6.71 135-6.93 135.29-7.18L135.29-7.18Q135.83-7.71 136.39-8.18 136.95-8.64 137.54-9.18L137.54-9.18Q138.32-9.96 139.15-10.67 139.98-11.38 140.66-12.26L140.66-12.26Q140.61-12.45 140.51-12.52 140.42-12.6 140.37-12.74L140.37-12.74Q139.59-13.48 138.83-14.18 138.07-14.89 137.19-15.43L137.19-15.43Q136.9-15.72 136.8-15.92L136.8-15.92Q135.93-16.55 135.12-17.33 134.31-18.12 133.34-18.65L133.34-18.65Q133.14-18.9 132.87-19.07 132.6-19.24 132.36-19.38L132.36-19.38Q132.21-19.63 132.04-19.8 131.87-19.97 131.63-20.07L131.63-20.07Q131.24-20.41 131.12-20.63 130.99-20.85 130.7-20.9L130.7-20.9Q130.6-21.14 130.38-21.29 130.16-21.44 129.92-21.63L129.92-21.63Q129.82-21.92 129.63-22.12L129.63-22.12Q129.58-22.51 129.68-22.68 129.77-22.85 129.82-22.95L129.82-22.95Q129.77-23.24 129.55-23.39 129.33-23.54 129.33-23.88L129.33-23.88Q129.33-24.07 129.46-24.15 129.58-24.22 129.63-24.37L129.63-24.37 129.77-25.1Q130.16-25.39 130.43-25.81 130.7-26.22 131.14-26.46L131.14-26.46Q131.63-27.2 132.36-27.69L132.36-27.69Q132.6-28.08 132.97-28.32 133.34-28.56 133.58-28.96L133.58-28.96Q133.97-29.2 134.24-29.49 134.51-29.79 134.9-30.03L134.9-30.03Q135-30.22 135.12-30.35 135.24-30.47 135.29-30.62L135.29-30.62Q136.61-31.88 137.61-32.81 138.61-33.74 139.68-34.67L139.68-34.67Q139.98-34.91 140.27-35.21 140.56-35.5 140.91-35.74L140.91-35.74Q141-35.84 141.15-35.84 141.3-35.84 141.44-35.94L141.44-35.94Q142.03-35.94 142.08-35.99ZM170.4-34.91L170.4-34.91Q170.3-34.72 170.32-34.52 170.35-34.33 170.35-34.08L170.35-34.08Q170.25-33.5 170.35-33.5 170.44-33.5 170.44-33.4L170.44-33.4 170.1-32.91Q170.1-32.62 169.98-32.37 169.86-32.13 169.91-31.79L169.91-31.79Q169.76-31.54 169.64-31.3 169.52-31.05 169.27-30.81L169.27-30.81 168.64-30.81Q168.1-30.81 167.49-30.74 166.88-30.66 166.29-30.66L166.29-30.66Q166.2-30.66 166.05-30.69 165.9-30.71 165.76-30.71L165.76-30.71Q165.66-30.71 165.51-30.69 165.37-30.66 165.17-30.66L165.17-30.66Q164.44-30.66 163.73-30.74 163.02-30.81 162.24-30.81L162.24-30.81Q162.05-30.81 161.85-30.81 161.65-30.81 161.41-30.76L161.41-30.76Q161.36-29.93 161.34-29.08 161.31-28.22 161.31-27.34L161.31-27.34Q161.31-27.1 161.26-26.83 161.22-26.56 161.22-26.32L161.22-26.32Q161.17-25.68 161.14-25.1 161.12-24.51 161.12-23.88L161.12-23.88Q161.12-22.51 161.14-21.14 161.17-19.78 161.22-18.36L161.22-18.36Q161.26-17.63 161.31-16.94 161.36-16.26 161.36-15.53L161.36-15.53Q161.36-13.87 161.31-12.23 161.26-10.6 161.26-8.94L161.26-8.94Q161.26-8.4 161.22-7.93 161.17-7.47 161.17-6.93L161.17-6.93Q161.17-5.81 161.22-4.69 161.26-3.56 161.26-2.44L161.26-2.44Q161.26-1.9 161.24-1.37 161.22-0.83 161.22-0.29L161.22-0.29Q160.97 0.1 160.87 0.39 160.78 0.68 160.29 0.68L160.29 0.68Q159.95 0.59 159.97 0.46 159.99 0.34 159.9 0.24L159.9 0.24Q159.46 0.2 159.24 0.32 159.02 0.44 158.73 0.54L158.73 0.54Q158.58 0.49 158.41 0.49 158.24 0.49 158.09 0.49L158.09 0.49Q157.99 0.49 157.9 0.56 157.8 0.63 157.46 0.63L157.46 0.63Q157.16 0.68 157.11 0.54 157.07 0.39 156.82 0.39L156.82 0.39Q156.58 0.54 156.26 0.61 155.94 0.68 155.65 0.68L155.65 0.68Q155.36 0.49 155.38 0.32 155.4 0.15 155.31-0.05L155.31-0.05Q155.26-0.15 155.14-0.32 155.01-0.49 154.92-0.59L154.92-0.59Q155.01-1.27 155.06-1.81 155.11-2.34 155.11-2.98L155.11-2.98Q155.11-4.25 155.01-5.47 154.92-6.69 154.92-7.96L154.92-7.96Q154.92-8.35 155.01-8.79 155.11-9.23 155.11-9.72L155.11-9.72Q155.01-10.11 155.06-10.18 155.11-10.25 155.11-10.35L155.11-10.35Q155.11-10.64 155.09-10.94 155.06-11.23 155.06-11.52L155.06-11.52Q155.06-12.11 155.09-12.7 155.11-13.28 155.11-13.87L155.11-13.87Q155.11-14.11 155.09-14.38 155.06-14.65 155.06-14.89L155.06-14.89Q155.01-15.33 155.04-15.82 155.06-16.31 155.06-16.8L155.06-16.8Q155.06-19.14 154.99-21.44 154.92-23.73 154.92-26.07L154.92-26.07Q154.92-27.25 155.04-28.39 155.16-29.54 155.16-30.71L155.16-30.71Q155.16-30.86 155.06-31.1 154.97-31.35 154.87-31.45L154.87-31.45Q154.62-31.45 154.4-31.47 154.18-31.49 153.94-31.49L153.94-31.49Q153.4-31.49 152.91-31.35L152.91-31.35Q151.99-31.3 151.13-31.23 150.28-31.15 149.4-31.1L149.4-31.1Q148.81-31.15 148.69-31.13 148.57-31.1 148.42-31.1L148.42-31.1Q148.03-31.1 147.84-31.3L147.84-31.3 147.84-31.93Q147.54-32.52 147.59-32.57 147.64-32.62 147.64-32.71L147.64-32.71Q147.64-32.86 147.37-33.03 147.1-33.2 147.1-33.59L147.1-33.59Q147.06-33.98 146.91-34.18 146.76-34.38 146.76-34.57L146.76-34.57Q146.76-34.91 146.91-35.35L146.91-35.35Q147.35-35.6 147.76-35.69 148.18-35.79 148.72-35.94L148.72-35.94Q149.01-36.04 149.25-36.13 149.5-36.23 149.79-36.28L149.79-36.28Q150.13-36.33 150.47-36.33 150.82-36.33 151.16-36.38L151.16-36.38Q151.89-36.52 152.69-36.62 153.5-36.72 154.23-36.72L154.23-36.72Q154.92-36.72 155.6-36.55 156.28-36.38 156.82-36.38L156.82-36.38Q157.6-36.38 158.31-36.28 159.02-36.18 159.8-36.18L159.8-36.18Q159.9-36.18 160.12-36.11 160.34-36.04 160.63-36.04L160.63-36.04 165.37-36.04Q165.76-35.94 165.93-35.99 166.1-36.04 166.24-36.04L166.24-36.04Q166.64-36.04 166.98-35.99 167.32-35.94 167.71-35.94L167.71-35.94Q168.05-35.94 168.25-35.99L168.25-35.99Q168.64-35.94 168.98-35.77 169.32-35.6 169.76-35.6L169.76-35.6Q169.96-35.45 170.05-35.23 170.15-35.01 170.4-34.91ZM193.05-34.57L193.05-34.57Q192.51-33.59 191.83-32.28 191.14-30.96 190.75-29.98L190.75-29.98Q190.61-29.64 190.49-29.32 190.36-29 190.22-28.66L190.22-28.66Q189.97-27.93 189.61-27.27 189.24-26.61 188.95-25.88L188.95-25.88Q188.51-24.9 188.04-23.9 187.58-22.9 187.14-21.83L187.14-21.83Q186.65-20.85 186.38-20.14 186.12-19.43 185.82-18.7 185.53-17.97 185.31-17.26 185.09-16.55 184.94-15.97L184.94-15.97Q184.5-15.19 184.21-14.79L184.21-14.79Q184.11-13.92 184.02-13.04 183.92-12.16 183.92-11.23L183.92-11.23Q183.92-10.79 183.99-10.38 184.06-9.96 184.11-9.52L184.11-9.52Q184.16-8.89 184.14-8.28 184.11-7.67 184.16-7.03L184.16-7.03Q184.21-5.81 184.28-4.61 184.36-3.42 184.41-2.15L184.41-2.15Q184.46-1.27 184.33-0.66 184.21-0.05 184.26 0.59L184.26 0.59Q184.11 0.68 183.94 0.73 183.77 0.78 183.63 0.88L183.63 0.88Q183.09 0.88 182.92 0.85 182.75 0.83 182.6 0.93L182.6 0.93Q182.16 0.63 182.11 0.66 182.06 0.68 182.01 0.68L182.01 0.68Q181.43 0.49 181.38 0.39 181.33 0.29 181.18 0.2L181.18 0.2Q180.65 0.2 180.3 0.34L180.3 0.34Q180.16 0.24 180.06 0.15 179.96 0.05 179.82-0.05L179.82-0.05Q179.38-0.1 179.08-0.17 178.79-0.24 178.6-0.34L178.6-0.34Q178.45-0.73 178.28-1.03 178.11-1.32 178.11-1.81L178.11-1.81Q178.11-2.2 178.21-2.54 178.3-2.88 178.35-3.27L178.35-3.27Q178.35-3.52 178.33-3.71 178.3-3.91 178.3-4.15L178.3-4.15Q178.3-4.39 178.4-4.79L178.4-4.79Q178.25-5.91 178.28-7.15 178.3-8.4 178.3-9.52L178.3-9.52Q178.3-10.64 178.11-11.62L178.11-11.62Q178.16-12.26 178.11-12.52 178.06-12.79 178.06-13.09L178.06-13.09Q178.06-13.33 178.11-13.6 178.16-13.87 178.16-14.11L178.16-14.11Q178.16-14.16 178.08-14.62 178.01-15.09 177.91-15.6 177.81-16.11 177.72-16.58 177.62-17.04 177.62-17.14L177.62-17.14Q177.13-18.02 176.89-18.8 176.64-19.58 176.35-20.12L176.35-20.12Q176.15-20.51 175.96-20.9 175.76-21.29 175.62-21.73L175.62-21.73Q175.52-21.97 175.45-22.27 175.37-22.56 175.28-22.8L175.28-22.8Q175.08-23.19 174.91-23.66 174.74-24.12 174.49-24.41L174.49-24.41Q174.3-24.85 174.13-25.22 173.96-25.59 173.96-25.93L173.96-25.93Q173.81-26.51 173.49-26.98 173.18-27.44 172.93-27.93L172.93-27.93Q172.79-28.22 172.71-28.47 172.64-28.71 172.54-28.96L172.54-28.96Q172.44-29.15 172.27-29.44 172.1-29.74 171.91-29.88L171.91-29.88Q171.81-30.32 171.56-30.66 171.32-31.01 171.22-31.45L171.22-31.45Q170.98-31.79 170.69-32.13L170.69-32.13Q170.49-32.86 170.15-33.47 169.81-34.08 169.51-34.77L169.51-34.77Q169.71-35.79 170.64-36.04L170.64-36.04Q171.13-36.62 171.22-36.67 171.32-36.72 171.66-36.72L171.66-36.72Q171.96-36.96 172.25-37.13 172.54-37.3 172.93-37.21L172.93-37.21Q172.98-37.4 173.2-37.55 173.42-37.7 173.62-37.7L173.62-37.7Q173.91-37.7 174.13-37.4 174.35-37.11 174.59-36.96L174.59-36.96Q174.98-36.28 175.4-35.64 175.81-35.01 176.11-34.33L176.11-34.33Q176.45-33.64 176.72-32.96 176.98-32.28 177.52-31.64L177.52-31.64Q177.77-30.66 178.28-29.81 178.79-28.96 179.13-27.98L179.13-27.98Q179.38-27.39 179.69-26.83 180.01-26.27 180.26-25.63L180.26-25.63Q180.4-25.34 180.5-25.05 180.6-24.76 180.7-24.46L180.7-24.46Q180.79-24.22 180.89-23.83 180.99-23.44 181.13-23.19L181.13-23.19Q181.48-23.54 181.72-24.07L181.72-24.07Q182.06-24.76 182.43-25.37 182.8-25.98 183.09-26.66L183.09-26.66Q183.48-27.29 183.65-27.98 183.82-28.66 184.06-29.35L184.06-29.35Q184.16-29.59 184.28-29.83 184.41-30.08 184.5-30.37L184.5-30.37Q184.65-30.66 184.75-30.96 184.85-31.25 184.94-31.54L184.94-31.54Q185.29-32.47 185.7-33.37 186.12-34.28 186.55-35.21L186.55-35.21Q186.6-35.35 186.77-35.64 186.95-35.94 187.17-36.25 187.38-36.57 187.58-36.82 187.78-37.06 187.92-37.16L187.92-37.16Q188.02-37.26 188.24-37.28 188.46-37.3 188.61-37.35L188.61-37.35Q189.05-37.35 189.24-37.11L189.24-37.11Q189.83-36.87 190.12-36.77 190.41-36.67 190.56-36.33L190.56-36.33Q191.29-35.84 191.66-35.77 192.02-35.69 192.22-35.35L192.22-35.35Q192.76-35.01 192.85-34.86 192.95-34.72 193.05-34.57ZM213.9-8.35L213.9-8.35Q214.24-7.91 214.31-7.64 214.38-7.37 214.48-7.1 214.58-6.84 214.65-6.59 214.73-6.35 214.73-6.3L214.73-6.3Q214.73-5.96 214.6-5.74 214.48-5.52 214.24-5.18L214.24-5.18Q212.28-4.44 210.38-3.74 208.48-3.03 206.47-2.34L206.47-2.34Q205.94-2.2 205.5-2.03 205.06-1.86 204.52-1.76L204.52-1.76Q204.42-1.66 204.2-1.59 203.98-1.51 203.69-1.42 203.4-1.32 203.13-1.25 202.86-1.17 202.76-1.17L202.76-1.17Q202.37-1.07 201.91-1.1 201.44-1.12 201.01-1.07L201.01-1.07Q200.76-1.03 200.66-0.83 200.57-0.63 200.44-0.42 200.32-0.2 200.08-0.02 199.83 0.15 199.39 0.15L199.39 0.15Q198.95 0.15 198.52 0.1 198.08 0.05 197.59-0.15L197.59-0.15Q197.49-0.29 197.51-0.51 197.54-0.73 197.44-0.88L197.44-0.88Q197-0.93 196.76-0.81 196.51-0.68 196.27-0.63L196.27-0.63Q196.12-0.83 196.05-1.1 195.98-1.37 195.78-1.56L195.78-1.56Q195.73-1.81 195.73-2.05 195.73-2.29 195.73-2.54L195.73-2.54Q195.73-2.88 195.76-3.34 195.78-3.81 195.93-4.05L195.93-4.05Q196.07-6.84 196.07-9.62 196.07-12.4 196.07-15.19L196.07-15.19Q196.07-15.48 196.07-15.94 196.07-16.41 196.05-16.89 196.02-17.38 196-17.8 195.98-18.21 195.93-18.41L195.93-18.41Q195.98-18.75 195.98-19.07 195.98-19.38 195.98-19.73L195.98-19.73Q195.98-20.02 195.98-20.26 195.98-20.51 195.88-20.75L195.88-20.75Q195.93-20.95 195.93-21.29L195.93-21.29Q195.93-21.53 195.88-21.78 195.83-22.02 195.83-22.27L195.83-22.27Q195.83-22.66 195.85-23.02 195.88-23.39 195.88-23.78L195.88-23.78Q195.88-25.05 195.76-26.29 195.63-27.54 195.63-28.81L195.63-28.81Q195.63-30.47 195.61-32.13 195.59-33.79 195.54-35.45L195.54-35.45Q195.73-35.94 195.73-36.28L195.73-36.28Q196.42-36.62 196.81-36.52 197.2-36.43 197.59-36.43L197.59-36.43Q197.83-36.43 198.03-36.47 198.22-36.52 198.42-36.62L198.42-36.62Q198.66-36.57 198.83-36.5 199-36.43 199.25-36.43L199.25-36.43Q199.98-36.57 200.05-36.47 200.13-36.38 200.27-36.28L200.27-36.28Q200.47-36.33 200.59-36.45 200.71-36.57 200.91-36.57L200.91-36.57Q201.2-36.57 201.35-36.21 201.49-35.84 201.69-35.6L201.69-35.6Q201.69-35.06 201.88-34.62L201.88-34.62Q201.98-32.62 201.96-30.66 201.93-28.71 202.08-26.76L202.08-26.76Q202.13-25.88 202.2-24.93 202.27-23.97 202.27-23.1L202.27-23.1Q202.27-21.63 202.3-20.14 202.32-18.65 202.32-17.14L202.32-17.14Q202.32-16.89 202.35-16.7 202.37-16.5 202.37-16.26L202.37-16.26Q202.37-15.67 202.32-15.14 202.27-14.6 202.27-14.06L202.27-14.06 202.27-10.25Q202.27-9.77 202.25-9.25 202.23-8.74 202.27-8.25L202.27-8.25 202.47-7.67Q203.01-7.86 203.57-8.08 204.13-8.3 204.77-8.4L204.77-8.4Q205.16-8.5 205.5-8.59 205.84-8.69 206.23-8.79L206.23-8.79Q206.91-9.18 207.3-9.33 207.69-9.47 208.09-9.62L208.09-9.62Q208.92-9.91 209.7-10.23 210.48-10.55 211.31-10.84L211.31-10.84Q211.7-10.74 211.94-10.94L211.94-10.94Q212.43-10.84 212.82-10.84L212.82-10.84Q213.36-10.3 213.48-10.01 213.6-9.72 213.85-9.47L213.85-9.47Q213.75-9.23 213.87-9.18 213.99-9.13 214.04-8.94L214.04-8.94Q214.24-8.84 214.09-8.67 213.94-8.5 213.9-8.35ZM224.64-12.79L224.64-12.79Q224.73-12.55 225.34-11.77 225.95-10.99 226.74-10.06 227.52-9.13 228.22-8.28 228.93-7.42 229.23-7.03L229.23-7.03Q229.76-6.35 230.28-5.69 230.79-5.03 231.23-4.3L231.23-4.3 232.11-2.83Q232.5-2.34 232.81-2 233.13-1.66 233.33-1.07L233.33-1.07Q233.42-0.68 233.42-0.54L233.42-0.54Q233.42-0.2 233.18-0.05L233.18-0.05Q232.79-0.05 232.77 0.07 232.74 0.2 232.55 0.29L232.55 0.29Q232.35 0.39 231.94 0.42 231.52 0.44 231.28 0.44L231.28 0.44Q230.84 0.44 230.18 0.42 229.52 0.39 229.13 0.54L229.13 0.54Q229.03 0.59 228.83 0.68 228.64 0.78 228.54 0.78L228.54 0.78Q228.15 0.78 227.98 0.66 227.81 0.54 227.52 0.49L227.52 0.49Q227.13 0.05 226.86-0.42 226.59-0.88 226.25-1.37L226.25-1.37Q225.91-1.71 225.56-1.98 225.22-2.25 224.98-2.59L224.98-2.59Q224.25-3.66 223.46-4.69 222.68-5.71 221.85-6.69L221.85-6.69Q221.46-7.23 221.02-7.67 220.58-8.11 220.19-8.64L220.19-8.64Q219.8-9.13 219.46-9.69 219.12-10.25 218.78-10.79L218.78-10.79Q218.48-11.23 218-11.94 217.51-12.65 216.92-13.35 216.33-14.06 215.75-14.7 215.16-15.33 214.77-15.67L214.77-15.67Q214.72-15.97 214.53-16.14 214.33-16.31 214.09-16.46L214.09-16.46Q213.99-16.7 213.87-16.92 213.75-17.14 213.75-17.38L213.75-17.38Q213.75-17.72 213.89-18.02L213.89-18.02Q213.99-18.21 214.02-18.38 214.04-18.55 214.14-18.75L214.14-18.75Q214.38-19.29 214.8-19.8 215.21-20.31 215.46-20.9L215.46-20.9Q215.55-21.04 215.55-21.22 215.55-21.39 215.65-21.53L215.65-21.53Q215.75-21.92 216.07-22.19 216.38-22.46 216.58-22.8L216.58-22.8Q216.82-23.19 217.04-23.61 217.26-24.02 217.51-24.51L217.51-24.51Q218.24-25.73 219.04-26.88 219.85-28.03 220.68-29.2L220.68-29.2Q221.32-30.18 221.93-31.08 222.54-31.98 223.17-32.91L223.17-32.91Q223.51-33.35 223.9-33.94 224.29-34.52 224.76-35.11 225.22-35.69 225.71-36.18 226.2-36.67 226.69-36.96L226.69-36.96Q227.42-37.01 227.66-36.65 227.91-36.28 228.4-36.28L228.4-36.28Q229.03-36.13 229.23-35.89 229.42-35.64 229.67-35.4L229.67-35.4Q230.35-35.4 230.76-35.16 231.18-34.91 231.57-34.42L231.57-34.42Q231.42-33.89 231.13-33.47 230.84-33.06 230.59-32.62L230.59-32.62Q230.2-32.42 230.03-32.08 229.86-31.74 229.52-31.54L229.52-31.54Q229.03-30.71 228.49-29.96 227.96-29.2 227.42-28.47L227.42-28.47Q227.13-28.03 226.81-27.69 226.49-27.34 226.25-26.95L226.25-26.95Q226.15-26.81 226.08-26.64 226-26.46 225.91-26.32L225.91-26.32Q225.32-25.39 224.64-24.58 223.95-23.78 223.37-22.8L223.37-22.8Q223.17-22.46 223.05-22.09 222.93-21.73 222.73-21.39L222.73-21.39Q222.54-21.09 222.17-20.61 221.8-20.12 221.46-19.56 221.12-18.99 220.85-18.48 220.58-17.97 220.58-17.63L220.58-17.63Q220.63-17.38 221.19-16.67 221.75-15.97 222.46-15.16 223.17-14.36 223.81-13.65 224.44-12.94 224.64-12.79ZM227.86-21.68L227.86-21.68Q228.2-20.95 228.59-20.41L228.59-20.41Q228.74-20.21 228.93-20.07 229.13-19.92 229.23-19.68L229.23-19.68Q229.32-19.58 229.42-19.26 229.52-18.95 229.62-18.8L229.62-18.8Q229.76-18.41 230.2-17.92 230.64-17.43 230.64-17.04L230.64-17.04Q230.64-16.8 230.54-16.5 230.45-16.21 230.4-15.97L230.4-15.97Q230.35-15.67 230.35-15.36 230.35-15.04 230.15-14.79L230.15-14.79Q229.91-14.55 229.62-14.5 229.32-14.45 229.08-14.26L229.08-14.26Q228.98-14.16 228.79-13.92 228.59-13.67 228.4-13.38 228.2-13.09 228.03-12.82 227.86-12.55 227.86-12.4L227.86-12.4Q227.27-12.35 227.1-12.38 226.93-12.4 226.74-12.35L226.74-12.35Q226.49-12.6 226.22-12.77 225.95-12.94 225.56-13.09L225.56-13.09Q225.47-13.48 225.12-13.99 224.78-14.5 224.54-14.84L224.54-14.84 224.2-15.28Q223.46-16.31 222.85-17.26 222.24-18.21 221.95-19.38L221.95-19.38Q222.88-20.07 223.39-20.41 223.9-20.75 224.49-21.04 225.08-21.34 225.64-21.61 226.2-21.88 226.69-22.27L226.69-22.27Q227.08-22.27 227.22-22.22 227.37-22.17 227.42-22.12 227.47-22.07 227.54-21.95 227.61-21.83 227.86-21.68Z" fill="#000000" data-fill-palette-color="primary"/>
                              </g>
                            </svg>
                          </g>
                        </svg>
                      </g>
                    </svg>
                  </g>
                </svg>
              </g>
            </svg>
          </g>
        </svg>
        <rect width="395.52" height="69.16013388837393" fill="none" stroke="none" visibility="hidden"/>
      </g>
    </svg>
  </g>
</svg>